<?xml version="1.0" encoding="UTF-8" standalone="no"?>
<svg width="26px" height="16px" viewBox="0 0 26 16" version="1.1" xmlns="http://www.w3.org/2000/svg" xmlns:xlink="http://www.w3.org/1999/xlink" xmlns:sketch="http://www.bohemiancoding.com/sketch/ns">
    <!-- Generator: Sketch 3.3.1 (12002) - http://www.bohemiancoding.com/sketch -->
    <title>ic_email</title>
    <desc>Created with Sketch.</desc>
    <defs></defs>
    <g id="Home-page" stroke="none" stroke-width="1" fill="none" fill-rule="evenodd" sketch:type="MSPage">
        <g id="home-page" sketch:type="MSArtboardGroup" transform="translate(-569.000000, -322.000000)" fill="#B6C4D0">
            <g id="subscribe_row" sketch:type="MSLayerGroup" transform="translate(60.000000, 307.000000)">
                <g id="Input-field-name-2-+-mail-icon-Copy" transform="translate(290.000000, 1.000000)" sketch:type="MSShapeGroup">
                    <g id="ic_email" transform="translate(219.000000, 14.000000)">
                        <path d="M12.3435802,7.62339405 L2.55110867,0.487829486 C1.37579151,-0.368598989 0,0.10779464 0,1.36640185 L0,14.0850267 C0,15.1415457 1.09037439,16 2.4273499,16 L23.536935,16 C24.8759592,16 25.9642849,15.1391091 25.9642849,14.0850267 L25.9642849,1.36640185 C25.9642849,0.104165966 24.5833137,-0.364824656 23.4131762,0.487829486 L13.6207047,7.62339405 C13.2774302,7.87353079 12.6857794,7.87274729 12.3435802,7.62339405 L12.3435802,7.62339405 L12.3435802,7.62339405 Z M24.5143388,1.42803452 C24.5972571,1.36761368 24.6604847,1.33549038 24.6904424,1.32727457 C24.6501066,1.33833657 24.5713097,1.3387329 24.4813917,1.30819589 C24.3901248,1.27720083 24.33466,1.2301188 24.3163648,1.19744776 C24.3285434,1.21919579 24.3415171,1.27704308 24.3415171,1.36640185 L24.3415171,14.0850267 C24.3415171,14.4329986 23.9786941,14.72 23.536935,14.72 L2.4273499,14.72 C1.98592577,14.72 1.62276781,14.4340849 1.62276781,14.0850267 L1.62276781,1.36640185 C1.62276781,1.27738246 1.63571792,1.21923196 1.64816178,1.19680165 C1.63055684,1.22853492 1.57636791,1.27510721 1.48582603,1.30645903 C1.39502962,1.33789899 1.31441628,1.33779917 1.2726553,1.32641649 C1.30226832,1.33448803 1.36591319,1.36680151 1.44994614,1.42803452 L11.2424177,8.56359909 C12.2055029,9.26537868 13.7559643,9.26743188 14.7218672,8.56359909 L24.5143388,1.42803452 L24.5143388,1.42803452 Z M25.0504875,1.28 L25.0504875,0 L0.973658207,0 L0.973658207,1.28 L25.0504875,1.28 L25.0504875,1.28 Z" id="Rectangle-784"></path>
                    </g>
                </g>
            </g>
        </g>
    </g>
</svg>