<?xml version="1.0" encoding="UTF-8" standalone="no"?>
<svg width="20px" height="18px" viewBox="0 0 20 18" version="1.1" xmlns="http://www.w3.org/2000/svg" xmlns:xlink="http://www.w3.org/1999/xlink" xmlns:sketch="http://www.bohemiancoding.com/sketch/ns">
    <!-- Generator: Sketch 3.3.1 (12002) - http://www.bohemiancoding.com/sketch -->
    <title>ic_fb</title>
    <desc>Created with Sketch.</desc>
    <defs></defs>
    <g id="Home-page" stroke="none" stroke-width="1" fill="none" fill-rule="evenodd" sketch:type="MSPage">
        <g id="home-page" sketch:type="MSArtboardGroup" transform="translate(-367.000000, -1014.000000)" fill="#EB7323">
            <g id="Footer" sketch:type="MSLayerGroup" transform="translate(0.000000, 915.000000)">
                <g id="ic_fb" transform="translate(367.000000, 98.981779)" sketch:type="MSShapeGroup">
                    <path d="M8.04220517,9.87475303 L6,9.87475303 L6,7.68641377 L8.04220517,7.68641377 L8.04220517,5.81737461 C8.04220517,4.34864141 9.24856033,3 12.0281743,3 C13.1536456,3 13.9860442,3.08490265 13.9860442,3.08490265 L13.9203166,5.1283524 C13.9203166,5.1283524 13.0715612,5.12185776 12.1453734,5.12185776 C11.1429536,5.12185776 10.9823864,5.48532141 10.9823864,6.08873246 C10.9823864,6.56567516 10.9823864,5.07214425 10.9823864,7.68653186 L14,7.68653186 L13.868695,9.87487111 L10.9823864,9.87487111 L10.9823864,15.9525547 L8.04220517,15.9525547 L8.04220517,9.87475303 Z" id="Shape-3"></path>
                </g>
            </g>
        </g>
    </g>
</svg>