<?xml version="1.0" encoding="UTF-8" standalone="no"?>
<svg width="20px" height="20px" viewBox="0 0 20 20" version="1.1" xmlns="http://www.w3.org/2000/svg" xmlns:xlink="http://www.w3.org/1999/xlink" xmlns:sketch="http://www.bohemiancoding.com/sketch/ns">
    <!-- Generator: Sketch 3.3.1 (12002) - http://www.bohemiancoding.com/sketch -->
    <title>ic_gp</title>
    <desc>Created with Sketch.</desc>
    <defs></defs>
    <g id="Home-page" stroke="none" stroke-width="1" fill="none" fill-rule="evenodd" sketch:type="MSPage">
        <g id="home-page" sketch:type="MSArtboardGroup" transform="translate(-368.000000, -1069.000000)" stroke="#EB7323" stroke-width="0.5" fill="#EB7323">
            <g id="Footer" sketch:type="MSLayerGroup" transform="translate(0.000000, 915.000000)">
                <g id="ic_gp" transform="translate(368.000000, 153.065666)" sketch:type="MSShapeGroup">
                    <g id="google-+" transform="translate(4.000000, 5.000000)">
                        <path d="M12.7835492,2.7193821 L11.130803,2.7193821 L11.130803,1.07266782 L10.3044299,1.07266782 L10.3044299,2.7193821 L8.65168375,2.7193821 L8.65168375,3.54273924 L10.3044299,3.54273924 L10.3044299,5.18945351 L11.130803,5.18945351 L11.130803,3.54273924 L12.7835492,3.54273924 L12.7835492,2.7193821 Z" id="Shape"></path>
                        <path d="M7.00262725,7.64964753 C6.67708017,7.40577279 5.96846028,6.90605599 5.96846028,6.57064737 C5.96846028,6.17734275 6.08091905,5.98376314 6.67383929,5.52172725 C7.28150556,5.04772403 7.71173328,4.42315888 7.71173328,3.64819354 C7.71173328,2.80385004 7.36576862,2.03794105 6.71516059,1.66598356 L7.63719288,1.66598356 L8.42213567,0.843957503 L4.90966256,0.843957503 C3.12717482,0.843957503 1.64187641,2.15551196 1.64187641,3.59838358 C1.64187641,5.07279073 2.61786947,6.24801468 4.29405611,6.24801468 C4.41056599,6.24801468 4.52367294,6.24203101 4.63467332,6.2341067 C4.52594156,6.44224117 4.44816028,6.67414858 4.44816028,6.91737644 C4.44816028,7.32701484 4.67388805,7.5608629 4.95325249,7.83174498 C4.74227076,7.83174498 4.53841898,7.8374052 4.31609414,7.8374052 C2.27563182,7.8374052 0.847048922,9.23887634 0.847048922,10.5840687 C0.847048922,11.9083991 2.56893207,12.736894 4.60955644,12.736894 C6.93586498,12.736894 8.3667165,11.4195176 8.3667165,10.094702 C8.36655446,9.03284423 8.13693763,8.49868093 7.00262725,7.64964753 L7.00262725,7.64964753 Z M4.97933889,5.64615429 C4.01821629,5.61738822 3.10496065,4.7413306 2.93898894,3.48755484 C2.77318172,2.23328875 3.4174941,1.27371145 4.37828772,1.30198719 C5.33908134,1.33058982 6.16104431,2.3594672 6.32701602,3.6134064 C6.49282324,4.86750905 5.93996802,5.67443003 4.97933889,5.64615429 L4.97933889,5.64615429 Z M4.62805783,12.050763 C3.23232851,12.050763 2.22433742,11.1624274 2.22433742,10.095296 C2.22433742,9.04960729 3.40695503,8.14740652 4.8028447,8.16288387 C5.12852557,8.16626954 5.4319171,8.21898928 5.70756722,8.30862896 C6.46524427,8.83824467 7.07651727,9.16923434 7.22997693,9.77285116 C7.25868047,9.89505777 7.27439525,10.0209725 7.27439525,10.1497892 C7.27439525,11.2169205 6.59048147,12.050763 4.62805783,12.050763 L4.62805783,12.050763 Z" id="Shape-2"></path>
                    </g>
                </g>
            </g>
        </g>
    </g>
</svg>