<?xml version="1.0" encoding="UTF-8" standalone="no"?>
<svg width="16px" height="18px" viewBox="0 0 16 18" version="1.1" xmlns="http://www.w3.org/2000/svg" xmlns:xlink="http://www.w3.org/1999/xlink" xmlns:sketch="http://www.bohemiancoding.com/sketch/ns">
    <!-- Generator: Sketch 3.3.1 (12002) - http://www.bohemiancoding.com/sketch -->
    <title>ic_name</title>
    <desc>Created with Sketch.</desc>
    <defs></defs>
    <g id="Home-page" stroke="none" stroke-width="1" fill="none" fill-rule="evenodd" sketch:type="MSPage">
        <g id="home-page" sketch:type="MSArtboardGroup" transform="translate(-289.000000, -321.000000)" fill="#B6C4D0" opacity="0.7">
            <g id="subscribe_row" sketch:type="MSLayerGroup" transform="translate(60.000000, 307.000000)">
                <g id="Input-field-name-+-name-icon-Copy" transform="translate(0.000000, 1.000000)" sketch:type="MSShapeGroup">
                    <g id="ic_name" transform="translate(229.000000, 13.000000)">
                        <path d="M15.3125,15.1874949 C15.3125,11.1486428 12.0391293,7.875 8,7.875 C3.96378283,7.875 0.6875,11.1519799 0.6875,15.1841514 L0.6875,17.3914101 C0.6875,17.7020703 0.939339828,17.9539101 1.25,17.9539101 C1.56066017,17.9539101 1.8125,17.7020703 1.8125,17.3914101 L1.8125,15.1841514 C1.8125,11.7732467 4.58515675,9 8,9 C11.417788,9 14.1875,11.7699423 14.1875,15.1874949 L14.1875,17.3880615 C14.1875,17.6987217 14.4393398,17.9505615 14.75,17.9505615 C15.0606602,17.9505615 15.3125,17.6987217 15.3125,17.3880615 L15.3125,15.1874949 L15.3125,15.1874949 Z M11.9375,3.9375 C11.9375,1.7628788 10.1746212,0 8,0 C5.8253788,0 4.0625,1.7628788 4.0625,3.9375 C4.0625,6.1121212 5.8253788,7.875 8,7.875 C10.1746212,7.875 11.9375,6.1121212 11.9375,3.9375 L11.9375,3.9375 Z M5.1875,3.9375 C5.1875,2.38419914 6.44669914,1.125 8,1.125 C9.55330086,1.125 10.8125,2.38419914 10.8125,3.9375 C10.8125,5.49080086 9.55330086,6.75 8,6.75 C6.44669914,6.75 5.1875,5.49080086 5.1875,3.9375 L5.1875,3.9375 Z" id="Rectangle-873"></path>
                    </g>
                </g>
            </g>
        </g>
    </g>
</svg>