<?xml version="1.0" encoding="UTF-8" standalone="no"?>
<svg width="20px" height="18px" viewBox="0 0 20 18" version="1.1" xmlns="http://www.w3.org/2000/svg" xmlns:xlink="http://www.w3.org/1999/xlink" xmlns:sketch="http://www.bohemiancoding.com/sketch/ns">
    <!-- Generator: Sketch 3.3.1 (12002) - http://www.bohemiancoding.com/sketch -->
    <title>ic_tw</title>
    <desc>Created with Sketch.</desc>
    <defs></defs>
    <g id="Home-page" stroke="none" stroke-width="1" fill="none" fill-rule="evenodd" sketch:type="MSPage">
        <g id="home-page" sketch:type="MSArtboardGroup" transform="translate(-368.000000, -1042.000000)" fill="#EB7323">
            <g id="Footer" sketch:type="MSLayerGroup" transform="translate(0.000000, 915.000000)">
                <g id="ic_tw" transform="translate(368.000000, 126.521898)" sketch:type="MSShapeGroup">
                    <path d="M14.7396764,5.88961465 C15.290296,5.54719683 15.7132545,5.00497909 15.9123512,4.35884921 C15.3969619,4.67598017 14.8261921,4.90619175 14.2186321,5.03026595 C13.732168,4.4924987 13.0390022,4.15655432 12.2718659,4.15655432 C10.7989536,4.15655432 9.60469866,5.3953408 9.60469866,6.92334154 C9.60469866,7.14020167 9.62829386,7.35139753 9.67372924,7.55389472 C7.45708079,7.4385192 5.49185443,6.33695608 4.17643848,4.66296586 C3.94685657,5.07160154 3.81529548,5.54685967 3.81529548,6.05394553 C3.81529548,7.01390222 4.2861594,7.86077607 5.00181535,8.356938 C4.56455671,8.34257507 4.15336329,8.21809628 3.7937803,8.01087888 C3.7935203,8.02240969 3.7935203,8.03400793 3.7935203,8.0456736 C3.7935203,9.38621441 4.71288795,10.5045006 5.9330131,10.7587178 C5.70921624,10.8219687 5.47358928,10.8557519 5.23029225,10.8557519 C5.05836582,10.8557519 4.89131443,10.8383546 4.72842308,10.8061222 C5.0679209,11.9053253 6.0528091,12.7053341 7.21995882,12.7275866 C6.30715622,13.4697391 5.15716665,13.9120231 3.90753124,13.9120231 C3.69224945,13.9120231 3.47995769,13.8989414 3.27130595,13.8733174 C4.45165077,14.6584239 5.85364744,15.1165544 7.35977498,15.1165544 C12.2655608,15.1165544 14.9482631,10.9004591 14.9482631,7.24411381 C14.9482631,7.12415294 14.9456631,7.00486638 14.9405281,6.88611928 C15.4617674,6.49609473 15.9139112,6.00876634 16.2714792,5.45393889 C15.7932052,5.67403573 15.2791159,5.82272247 14.7396764,5.88961465 Z" id="Shape-5"></path>
                </g>
            </g>
        </g>
    </g>
</svg>